<svg xmlns="http://www.w3.org/2000/svg">
  <defs>
    <symbol id="icon-bookmark" viewBox="-5.0 -10.0 110.0 135.0">
        <svg xmlns="http://www.w3.org/2000/svg" version="1.1" viewBox="-5.0 -10.0 110.0 135.0">
            <path d="m12.566 42.969c-0.64844 0-1.1719-0.52344-1.1719-1.1719v-1.7578c0-0.64844 0.52344-1.1719 1.1719-1.1719 0.64844 0 1.1719 0.52344 1.1719 1.1719v1.7578c0 0.64844-0.52344 1.1719-1.1719 1.1719z"/>
            <path d="m77.992 99.023c-2.5859-0.003907-5.0781-0.96484-6.9961-2.6953l-15.527-13.82c-3.1211-2.7773-7.832-2.7773-10.953 0l-15.508 13.82c-3.1133 2.7695-7.5625 3.457-11.363 1.75-3.8047-1.707-6.25-5.4844-6.25-9.6484v-42.938c0-0.64844 0.52344-1.1719 1.1719-1.1719 0.64844 0 1.1719 0.52344 1.1719 1.1719v42.938c0 3.2422 1.9062 6.1836 4.8633 7.5117 2.9609 1.3281 6.4219 0.79297 8.8438-1.3633l15.523-13.82c4.0078-3.5625 10.055-3.5625 14.062 0l15.523 13.82c2.4219 2.1562 5.8828 2.6914 8.8438 1.3633 2.957-1.3281 4.8633-4.2695 4.8633-7.5117v-76.875c-0.003907-4.543-3.6875-8.2266-8.2305-8.2344h-56.055c-4.5469 0.003907-8.2344 3.6875-8.2383 8.2344v24.805c0 0.64844-0.52344 1.1719-1.1719 1.1719-0.64844 0-1.1719-0.52344-1.1719-1.1719v-24.805c0.003907-5.8398 4.7383-10.574 10.578-10.578h56.055c5.8398 0.007813 10.57 4.7383 10.578 10.578v76.875c0.03125 4.1758-2.4258 7.9688-6.25 9.6484-1.3711 0.62109-2.8594 0.94141-4.3633 0.94531z"/>
        </svg>
    </symbol>
    <symbol id="icon-bookmark-star" viewBox="-5.0 -10.0 110.0 135.0">
        <svg xmlns="http://www.w3.org/2000/svg" version="1.1" viewBox="-5.0 -10.0 110.0 135.0">
            <path d="m69.195 99.023c-2.5859-0.007813-5.0781-0.96875-6.9961-2.6992l-15.52-13.816c-3.1211-2.7773-7.8281-2.7773-10.949 0l-15.523 13.816 0.003907 0.003906c-3.0977 2.8008-7.5664 3.4922-11.367 1.7578-3.8203-1.6797-6.2812-5.4766-6.25-9.6523v-46.625c0-0.64844 0.52734-1.1719 1.1719-1.1719 0.64844 0 1.1719 0.52344 1.1719 1.1719v46.621h0.003906c0 3.2422 1.9023 6.1836 4.8633 7.5078 2.957 1.3281 6.4219 0.79297 8.8438-1.3594l15.531-13.82c4.0078-3.5664 10.055-3.5664 14.062 0l15.523 13.816v0.003906c2.4219 2.1523 5.8828 2.6875 8.8438 1.3594 2.957-1.3242 4.8633-4.2656 4.8633-7.5078v-18.207h-0.28516c-7.2266 0-13.902-3.8555-17.516-10.113s-3.6133-13.965 0-20.223c3.6133-6.2578 10.289-10.113 17.516-10.113h0.28516v-18.219c-0.003906-4.5469-3.6914-8.2305-8.2383-8.2344h-56.055c-4.5508 0.003907-8.2344 3.6875-8.2422 8.2344v21.109c0 0.64844-0.52344 1.1719-1.168 1.1719-0.64844 0-1.1758-0.52344-1.1758-1.1719v-21.109c0.007812-5.8398 4.7422-10.57 10.578-10.578h56.055c5.8398 0.007813 10.574 4.7383 10.578 10.578v19.445c0.003906 0.32812-0.13281 0.64062-0.375 0.86328-0.23828 0.22266-0.55859 0.33594-0.88672 0.30859-0.4375-0.03125-0.89844-0.050781-1.3672-0.050781v0.003906c-6.3867 0-12.293 3.4062-15.484 8.9375-3.1953 5.5352-3.1953 12.348 0 17.883 3.1914 5.5312 9.0977 8.9375 15.484 8.9375 0.46875 0 0.92578-0.015624 1.3672-0.050781v0.003907c0.32422-0.027344 0.64844 0.085937 0.88672 0.30859 0.24219 0.22266 0.375 0.53516 0.375 0.86328v19.43c0.03125 4.1758-2.4258 7.9688-6.25 9.6484-1.3711 0.61719-2.8594 0.9375-4.3594 0.9375z"/>
            <path d="m3.7656 39.289c-0.64453 0-1.1719-0.52734-1.1719-1.1719v-1.7578c0-0.64844 0.52734-1.1719 1.1719-1.1719 0.64844 0 1.1719 0.52344 1.1719 1.1719v1.7578c0 0.64453-0.52344 1.1719-1.1719 1.1719z"/>
            <path d="m77.18 70.227c-5.3633 0-10.508-2.1328-14.301-5.9258-3.793-3.793-5.9219-8.9336-5.9219-14.301-0.003906-5.3633 2.1289-10.508 5.9219-14.301 3.793-3.793 8.9375-5.9219 14.301-5.9219 5.3633-0.003906 10.508 2.1289 14.301 5.9219s5.9219 8.9375 5.9258 14.301c-0.007812 5.3633-2.1406 10.504-5.9297 14.293-3.793 3.793-8.9336 5.9258-14.297 5.9336zm0-38.105v-0.003906c-4.7422 0-9.2891 1.8867-12.641 5.2383-3.3555 3.3516-5.2383 7.9023-5.2383 12.645-0.003906 4.7422 1.8828 9.2891 5.2344 12.645 3.3516 3.3516 7.9023 5.2344 12.645 5.2344 4.7422 0.003906 9.2891-1.8828 12.645-5.2344 3.3516-3.3555 5.2344-7.9023 5.2383-12.645-0.007812-4.7422-1.8906-9.2852-5.2461-12.637-3.3516-3.3516-7.8945-5.2383-12.637-5.2461z"/>
            <path d="m83.094 62.086c-0.48438-0.003907-0.96484-0.12109-1.3906-0.34766l-4.2227-2.2227c-0.1875-0.09375-0.41016-0.09375-0.59766 0l-4.2266 2.2227c-1.0039 0.52344-2.2227 0.43359-3.1406-0.23047-0.91797-0.66797-1.3789-1.7969-1.1875-2.9141l0.8125-4.707c0.03125-0.21094-0.039063-0.42188-0.19531-0.56641l-3.4141-3.3281c-0.81641-0.79688-1.1094-1.9844-0.75781-3.0664 0.35156-1.082 1.2891-1.8711 2.4141-2.0312l4.7188-0.6875v0.003907c0.21094-0.03125 0.39062-0.16406 0.48438-0.35156l2.1094-4.2773 0.003906-0.003906c0.5-1.0156 1.5391-1.6602 2.6758-1.6602 1.1367 0 2.1758 0.64453 2.6797 1.6602l2.1094 4.2773 0.003906 0.003906c0.089844 0.1875 0.27344 0.32031 0.48047 0.35156l4.7188 0.6875 0.003906-0.003907c1.125 0.16406 2.0586 0.94922 2.4102 2.0312 0.35156 1.082 0.058593 2.2695-0.75391 3.0625l-3.418 3.332c-0.15234 0.14844-0.22266 0.35938-0.1875 0.57031l0.80859 4.7031c0.14844 0.86719-0.09375 1.7539-0.66016 2.4297-0.56641 0.67187-1.4023 1.0625-2.2812 1.0625zm-5.9141-4.9844c0.48437 0 0.96094 0.11719 1.3906 0.34375l4.2227 2.2188c0.21875 0.11328 0.48047 0.09375 0.67578-0.050781 0.19922-0.14453 0.29688-0.38672 0.25781-0.62891l-0.80469-4.7031h-0.003906c-0.16406-0.96484 0.15625-1.9531 0.85938-2.6406l3.4141-3.3203h0.003906c0.17188-0.17187 0.23438-0.42578 0.16016-0.66016-0.074219-0.23047-0.27734-0.39844-0.51953-0.43359l-4.7188-0.6875c-0.97266-0.14062-1.8125-0.75391-2.25-1.6328l-2.1094-4.2812c-0.10937-0.21875-0.33203-0.35938-0.57812-0.35938-0.24219 0-0.46875 0.14062-0.57813 0.35938l-2.1094 4.2773c-0.43359 0.88281-1.2734 1.4922-2.25 1.6367l-4.7188 0.6875v-0.003906c-0.24219 0.035156-0.44141 0.20312-0.51953 0.4375-0.074218 0.23438-0.011718 0.48828 0.16406 0.66016l3.4141 3.3203h0.003907c0.70312 0.68359 1.0234 1.6719 0.85937 2.6406l-0.80859 4.7031c-0.039063 0.24219 0.058593 0.48438 0.25781 0.625 0.19531 0.14453 0.45703 0.16406 0.67578 0.054687l4.2227-2.2188-0.003907-0.003906c0.42969-0.22656 0.90625-0.34375 1.3906-0.33984z"/>
        </svg>
    </symbol>
  </defs>
</svg>