<svg xmlns="http://www.w3.org/2000/svg" version="1.1" viewBox="-5.0 -10.0 110.0 135.0">
 <path d="m12.566 42.969c-0.64844 0-1.1719-0.52344-1.1719-1.1719v-1.7578c0-0.64844 0.52344-1.1719 1.1719-1.1719 0.64844 0 1.1719 0.52344 1.1719 1.1719v1.7578c0 0.64844-0.52344 1.1719-1.1719 1.1719z"/>
 <path d="m77.992 99.023c-2.5859-0.003907-5.0781-0.96484-6.9961-2.6953l-15.527-13.82c-3.1211-2.7773-7.832-2.7773-10.953 0l-15.508 13.82c-3.1133 2.7695-7.5625 3.457-11.363 1.75-3.8047-1.707-6.25-5.4844-6.25-9.6484v-42.938c0-0.64844 0.52344-1.1719 1.1719-1.1719 0.64844 0 1.1719 0.52344 1.1719 1.1719v42.938c0 3.2422 1.9062 6.1836 4.8633 7.5117 2.9609 1.3281 6.4219 0.79297 8.8438-1.3633l15.523-13.82c4.0078-3.5625 10.055-3.5625 14.062 0l15.523 13.82c2.4219 2.1562 5.8828 2.6914 8.8438 1.3633 2.957-1.3281 4.8633-4.2695 4.8633-7.5117v-76.875c-0.003907-4.543-3.6875-8.2266-8.2305-8.2344h-56.055c-4.5469 0.003907-8.2344 3.6875-8.2383 8.2344v24.805c0 0.64844-0.52344 1.1719-1.1719 1.1719-0.64844 0-1.1719-0.52344-1.1719-1.1719v-24.805c0.003907-5.8398 4.7383-10.574 10.578-10.578h56.055c5.8398 0.007813 10.57 4.7383 10.578 10.578v76.875c0.03125 4.1758-2.4258 7.9688-6.25 9.6484-1.3711 0.62109-2.8594 0.94141-4.3633 0.94531z"/>
<text x="0.0" y="117.5" font-size="5.0" font-weight="bold" font-family="Arbeit Regular, Helvetica, Arial-Unicode, Arial, Sans-serif" fill="#000000">Created by BEARicons</text><text x="0.0" y="122.5" font-size="5.0" font-weight="bold" font-family="Arbeit Regular, Helvetica, Arial-Unicode, Arial, Sans-serif" fill="#000000">from Noun Project</text></svg>