<svg xmlns="http://www.w3.org/2000/svg" version="1.1" viewBox="-5.0 -10.0 110.0 135.0">
 <path d="m92.07 82.664h-84.137c-3.8398-0.007812-6.9531-3.1172-6.957-6.9609v-30.43c0-0.64844 0.52344-1.1719 1.1719-1.1719 0.64844 0 1.1719 0.52344 1.1719 1.1719v30.43c0.003907 2.5469 2.0664 4.6133 4.6133 4.6172h84.137c2.543-0.003906 4.6055-2.0703 4.6094-4.6172v-40.297c-0.003907-2.3594-1.7891-4.3398-4.1406-4.5859v37.242c0.023438 2.2656-1.0664 4.4023-2.918 5.7148-1.6602 1.1719-3.793 1.4414-5.6914 0.71484-4.1367-1.5664-8.5195-2.3867-12.945-2.4219-7.1992-0.03125-14.258 1.9766-20.367 5.7891-0.37891 0.23828-0.85547 0.23828-1.2344 0-5.9336-3.707-12.773-5.7109-19.77-5.7891h0.003907c-4.6406-0.035156-9.2461 0.79688-13.578 2.4453-1.8828 0.71484-4 0.44922-5.6484-0.71094-1.8555-1.3164-2.9531-3.4609-2.9297-5.7344v-37.25c-2.3477 0.24609-4.1367 2.2227-4.1406 4.5859v0.72656c0 0.64844-0.52344 1.1719-1.1719 1.1719-0.64844 0-1.1719-0.52344-1.1719-1.1719v-0.72656c0.003907-3.8398 3.1172-6.9492 6.957-6.9531h0.69922c0.64844 0 1.1719 0.52344 1.1719 1.1719v38.438c-0.027344 1.5078 0.6875 2.9336 1.9141 3.8125 1.0156 0.71875 2.3203 0.88672 3.4844 0.44531 4.6094-1.75 9.5039-2.6289 14.43-2.5938 7.1797 0.074219 14.211 2.0625 20.367 5.7578 6.25-3.75 13.395-5.7422 20.684-5.7578h0.32031c4.7031 0.039063 9.3633 0.91016 13.762 2.5703 1.1797 0.44922 2.5 0.28125 3.5312-0.44531 1.2188-0.875 1.9297-2.293 1.9062-3.7891v-38.438c0-0.64844 0.52734-1.1719 1.1719-1.1719h0.69922c3.8398 0.007813 6.9453 3.1172 6.9492 6.9531v40.297c-0.003907 3.8438-3.1133 6.9531-6.9531 6.9609z"/>
 <path d="m2.1484 42.754c-0.64844 0-1.1719-0.52344-1.1719-1.1719v-1.7578c0-0.64844 0.52344-1.1719 1.1719-1.1719 0.64844 0 1.1719 0.52344 1.1719 1.1719v1.7578c0 0.64844-0.52344 1.1719-1.1719 1.1719z"/>
 <path d="m50 78.031c-0.21875-0.003906-0.43359-0.0625-0.61719-0.17969-4.1875-2.6016-11.02-5.7188-19.766-5.7891-4.6406-0.03125-9.2422 0.79688-13.578 2.4453-1.8828 0.71484-4 0.44922-5.6484-0.71094-1.8555-1.3164-2.9531-3.4609-2.9297-5.7344v-40.617c0-2.7656 1.5625-5.2422 3.9609-6.3047 5.7344-2.5508 11.941-3.8477 18.215-3.8008 7.3164 0.074218 14.5 1.9453 20.926 5.4453 0.37891 0.20703 0.61328 0.60156 0.60938 1.0312v53.043c0 0.64453-0.52344 1.1719-1.1719 1.1719zm-20.68-8.3047h0.31641c6.7188 0.066407 13.316 1.8125 19.191 5.0781v-50.285c-5.9297-3.1133-12.516-4.7695-19.211-4.8359-5.9414-0.042969-11.82 1.1875-17.25 3.6016-1.5625 0.6875-2.5625 2.3203-2.5625 4.1602v40.625c-0.023438 1.5039 0.69141 2.9258 1.9141 3.8047 1.0156 0.71875 2.3242 0.88672 3.4844 0.44531 4.5117-1.7109 9.293-2.5898 14.117-2.5938z"/>
 <path d="m50 78.031c-0.19922 0-0.39453-0.050781-0.57031-0.14844-0.37109-0.20703-0.60156-0.59766-0.60156-1.0234v-53.043c0-0.42969 0.23438-0.82422 0.61328-1.0273v-0.003906c3.1055-1.6875 6.3984-3.0078 9.8125-3.9258 0.45703-0.125 0.94141 0.039063 1.2305 0.41016 0.28906 0.37109 0.32812 0.88281 0.09375 1.293-0.14062 0.25391-0.21484 0.54297-0.21484 0.83594v23.602c0 0.67969 0.39453 1.293 1.0117 1.5703 0.61719 0.27734 1.3398 0.16797 1.8438-0.28125l4.7656-4.2422c1.5391-1.3711 3.8633-1.3711 5.3984 0l4.7656 4.2422c0.50781 0.44922 1.2266 0.55859 1.8438 0.28516 0.61719-0.27734 1.0156-0.89062 1.0156-1.5664v-23.609c0-0.29297-0.074218-0.58203-0.21875-0.83594-0.23047-0.41016-0.19141-0.92188 0.097657-1.293 0.28906-0.375 0.77344-0.53906 1.2305-0.41406 2.2109 0.59766 4.375 1.3633 6.4688 2.2891 2.4023 1.0586 3.9531 3.5312 3.9531 6.3008v40.625c0.023438 2.2695-1.0664 4.4062-2.9141 5.7188-1.6602 1.168-3.7969 1.4375-5.6953 0.71094-4.1367-1.5664-8.5195-2.3906-12.945-2.4297-7.1992-0.03125-14.258 1.9766-20.363 5.7891h-0.003906c-0.18359 0.11328-0.39844 0.17578-0.61719 0.17188zm1.1719-53.516v50.289c6.0625-3.3711 12.895-5.1211 19.832-5.0781 4.7031 0.039063 9.3633 0.91016 13.762 2.5703 1.1797 0.44922 2.5039 0.28125 3.5312-0.44531 1.2188-0.875 1.9297-2.293 1.9062-3.7891v-40.617c0-1.8438-1.0039-3.4727-2.5547-4.1562-1.4023-0.61719-2.8359-1.1602-4.2969-1.625v23.34c0 1.5977-0.94141 3.0469-2.3984 3.6992-1.4609 0.65625-3.168 0.39453-4.3594-0.66797l-4.7656-4.2422c-0.65234-0.58203-1.6328-0.58203-2.2812 0l-4.7656 4.2422c-1.1953 1.0625-2.9023 1.3242-4.3633 0.66797-1.457-0.65234-2.3984-2.1016-2.3984-3.6992v-23.344c-2.3594 0.75391-4.6523 1.7109-6.8477 2.8594z"/>
 <path d="m62.094 49.07c-0.57812-0.003906-1.1484-0.125-1.6758-0.36719-1.4688-0.64453-2.4141-2.1016-2.3984-3.7109v-23.594c0.003907-2.2422 1.8164-4.0586 4.0586-4.0625l17.219 0.003906c2.2422 0 4.0586 1.8164 4.0625 4.0586v23.602c-0.003906 1.6016-0.94141 3.0508-2.4023 3.7031-1.457 0.65625-3.1641 0.39453-4.3594-0.67188l-4.7656-4.2422c-0.65234-0.57812-1.6289-0.57812-2.2812 0l-4.7656 4.2422c-0.73828 0.66797-1.6953 1.0352-2.6914 1.0391zm8.5938-8.0547v-0.003906c0.99609 0 1.957 0.36719 2.6992 1.0273l4.7617 4.25c0.50781 0.44922 1.2266 0.55859 1.8438 0.28516 0.61719-0.27734 1.0156-0.89062 1.0156-1.5664v-23.609c0-0.94922-0.76953-1.7148-1.7188-1.7188l-17.211 0.003906c-0.94922 0-1.7148 0.76562-1.7148 1.7148v23.602c0 0.67969 0.39453 1.293 1.0117 1.5703 0.61719 0.27734 1.3398 0.16797 1.8438-0.28125l4.7656-4.2422c0.74219-0.66406 1.707-1.0312 2.7031-1.0312z"/>
 <path d="m42.25 34.312h-25.867c-0.64844 0-1.1719-0.52344-1.1719-1.1719s0.52344-1.1719 1.1719-1.1719h25.867c0.64844 0 1.1719 0.52344 1.1719 1.1719s-0.52344 1.1719-1.1719 1.1719z"/>
 <path d="m42.25 42.234h-25.867c-0.64844 0-1.1719-0.52344-1.1719-1.1719 0-0.64453 0.52344-1.1719 1.1719-1.1719h25.867c0.64844 0 1.1719 0.52734 1.1719 1.1719 0 0.64844-0.52344 1.1719-1.1719 1.1719z"/>
 <path d="m42.25 50.16h-25.867c-0.64844 0-1.1719-0.52344-1.1719-1.1719 0-0.64844 0.52344-1.1719 1.1719-1.1719h25.867c0.64844 0 1.1719 0.52344 1.1719 1.1719 0 0.64844-0.52344 1.1719-1.1719 1.1719z"/>
 <path d="m42.25 58.086h-25.867c-0.64844 0-1.1719-0.52734-1.1719-1.1719 0-0.64844 0.52344-1.1719 1.1719-1.1719h25.867c0.64844 0 1.1719 0.52344 1.1719 1.1719 0 0.64453-0.52344 1.1719-1.1719 1.1719z"/>
<text x="0.0" y="117.5" font-size="5.0" font-weight="bold" font-family="Arbeit Regular, Helvetica, Arial-Unicode, Arial, Sans-serif" fill="#000000">Created by BEARicons</text><text x="0.0" y="122.5" font-size="5.0" font-weight="bold" font-family="Arbeit Regular, Helvetica, Arial-Unicode, Arial, Sans-serif" fill="#000000">from Noun Project</text></svg>