<svg xmlns="http://www.w3.org/2000/svg" version="1.1" viewBox="-5.0 -10.0 110.0 135.0">
 <path d="m97.852 44.512h-95.703c-0.64844 0-1.1719-0.52344-1.1719-1.1719v-25.242c0.007813-5.7734 4.6875-10.453 10.461-10.461h22.461c2.7812-0.011719 5.3672 1.4297 6.8242 3.8008l3.957 6.3945v0.003907c0.62891 1.0195 1.7422 1.6445 2.9453 1.6406h45.234c3.4023 0.003907 6.1602 2.7617 6.1641 6.1641v17.699c0 0.64844-0.52344 1.1719-1.1719 1.1719zm-94.531-2.3438h93.359v-16.527c-0.003907-2.1094-1.7109-3.8164-3.8203-3.8203h-45.242c-2.0156 0.007813-3.8867-1.0352-4.9375-2.75l-3.957-6.3984c-1.0312-1.6797-2.8633-2.6992-4.832-2.6914h-22.461c-4.4766 0.007812-8.1055 3.6406-8.1094 8.1172z"/>
 <path d="m89.344 44.512h-78.688c-0.64844 0-1.1719-0.52344-1.1719-1.1719v-9.207c0.003906-3.082 2.5-5.5781 5.5859-5.582h69.863-0.003906c3.0859 0.003907 5.582 2.5 5.5859 5.582v9.207c0 0.64844-0.52344 1.1719-1.1719 1.1719zm-77.516-2.3438h76.344v-8.0352c-0.003906-1.7852-1.4531-3.2344-3.2422-3.2383h-69.859c-1.7891 0.003907-3.2383 1.4531-3.2422 3.2383z"/>
 <path d="m87.629 92.363h-75.258c-6.2891-0.007812-11.387-5.1055-11.395-11.395v-13.355c0-0.64844 0.52344-1.1719 1.1719-1.1719 0.64844 0 1.1719 0.52344 1.1719 1.1719v13.355c0.007813 4.9961 4.0547 9.043 9.0508 9.0508h75.258c4.9961-0.003906 9.0469-4.0547 9.0508-9.0508v-36.457h-93.359v13.961c0 0.64844-0.52344 1.1719-1.1719 1.1719-0.64844 0-1.1719-0.52344-1.1719-1.1719v-15.133c0-0.64844 0.52344-1.1719 1.1719-1.1719h95.703c0.64844 0 1.1719 0.52344 1.1719 1.1719v37.629c-0.007813 6.2891-5.1055 11.387-11.395 11.395z"/>
 <path d="m2.1484 65.094c-0.64844 0-1.1719-0.52344-1.1719-1.1719v-1.7578c0-0.64844 0.52344-1.1719 1.1719-1.1719 0.64844 0 1.1719 0.52344 1.1719 1.1719v1.7578c0 0.64844-0.52344 1.1719-1.1719 1.1719z"/>
 <path d="m74.328 76.859c-1.0625-0.003906-2.0859-0.39844-2.875-1.1094l-5.2422-4.6719c-0.76172-0.67578-1.9102-0.67578-2.6719 0l-5.2422 4.6719c-1.2812 1.1367-3.1094 1.418-4.6719 0.71875-1.5664-0.70312-2.5703-2.2578-2.5742-3.9688l0.003907-29.16c0-0.64844 0.52344-1.1719 1.1719-1.1719h25.297c0.64844 0 1.1719 0.52344 1.1719 1.1719v29.16c0.015626 1.7148-0.99609 3.2773-2.5703 3.9688-0.56641 0.25391-1.1758 0.38672-1.7969 0.39062zm-9.4531-8.6328c1.0703 0 2.1016 0.39453 2.8984 1.1094l5.2422 4.6719c0.59375 0.52344 1.4375 0.65234 2.1562 0.32813 0.72266-0.32422 1.1875-1.0391 1.1875-1.8281v-27.996h-22.969v27.988c0.003906 0.78906 0.46484 1.5039 1.1875 1.8281s1.5664 0.19531 2.1562-0.32812l5.2422-4.6641c0.79688-0.71484 1.8281-1.1094 2.8984-1.1094z"/>
<text x="0.0" y="117.5" font-size="5.0" font-weight="bold" font-family="Arbeit Regular, Helvetica, Arial-Unicode, Arial, Sans-serif" fill="#000000">Created by BEARicons</text><text x="0.0" y="122.5" font-size="5.0" font-weight="bold" font-family="Arbeit Regular, Helvetica, Arial-Unicode, Arial, Sans-serif" fill="#000000">from Noun Project</text></svg>