<svg xmlns="http://www.w3.org/2000/svg" version="1.1" viewBox="-5.0 -10.0 110.0 135.0">
 <path d="m90.625 42.992h-88.477c-0.64844 0-1.1719-0.52344-1.1719-1.1719v-23.332c0-5.3945 4.3711-9.7656 9.7656-9.7656h20.75c2.6016-0.007812 5.0234 1.3398 6.3828 3.5586l3.6562 5.9141c0.56641 0.91797 1.5703 1.4766 2.6484 1.4727h41.82c3.2031 0 5.7969 2.5938 5.7969 5.793v16.359c0 0.64844-0.52344 1.1719-1.1719 1.1719zm-87.305-2.3438h86.133v-15.188c-0.003906-1.9023-1.543-3.4414-3.4453-3.4414h-41.828c-1.8906 0.003907-3.6523-0.97656-4.6406-2.5859l-3.6562-5.9141c-0.9375-1.5273-2.6016-2.4531-4.3906-2.4492h-20.75c-4.0977 0-7.4219 3.3242-7.4219 7.4219z"/>
 <path d="m82.75 42.992h-72.738c-0.64844 0-1.1719-0.52344-1.1719-1.1719v-8.5078c0.003906-2.8984 2.3516-5.2461 5.2539-5.25h64.578c2.8984 0.003906 5.25 2.3516 5.25 5.25v8.5078c0 0.64844-0.52344 1.1719-1.1719 1.1719zm-71.57-2.3438h70.398v-7.3359c0-1.6055-1.3008-2.9023-2.9062-2.9062h-64.578c-1.6055 0.003906-2.9062 1.3008-2.9102 2.9062z"/>
 <path d="m73.289 87.227h-61.688c-5.8672-0.003906-10.617-4.7539-10.625-10.617v-11.449c0-0.64844 0.52344-1.1719 1.1719-1.1719 0.64844 0 1.1719 0.52344 1.1719 1.1719v11.449c0.003907 4.5664 3.7109 8.2695 8.2773 8.2734h60.699l0.66016-3.8516h0.003907c0.066406-0.38281-0.0625-0.77734-0.34375-1.0469l-4.4375-4.3242c-0.96094-0.9375-1.3047-2.3398-0.89063-3.6172 0.41406-1.2773 1.5156-2.2109 2.8438-2.4023l6.1367-0.89062c0.38672-0.054688 0.71875-0.29688 0.89062-0.64844l2.7344-5.5586v0.003906c0.59375-1.207 1.8203-1.9688 3.1641-1.9688s2.5703 0.76172 3.168 1.9688l2.7422 5.5547c0.10156 0.21094 0.26562 0.38672 0.46875 0.5v-25.609h-86.117v13.027c0 0.64844-0.52344 1.1719-1.1719 1.1719-0.64844 0-1.1719-0.52344-1.1719-1.1719v-14.199c0-0.64453 0.52344-1.1719 1.1719-1.1719h88.477c0.64844 0 1.1719 0.52734 1.1719 1.1719v28.219c0 0.34375-0.14844 0.66406-0.40625 0.88672-0.25391 0.22266-0.59766 0.32422-0.93359 0.27734l-0.91797-0.13281c-1.1523-0.16406-2.1484-0.88672-2.6641-1.9297l-2.7422-5.5586c-0.20312-0.40625-0.61328-0.66016-1.0664-0.66016-0.44922 0-0.86328 0.25391-1.0625 0.66016l-2.7344 5.5547c-0.51172 1.043-1.5078 1.7656-2.6562 1.9336l-6.1328 0.89063c-0.44531 0.0625-0.81641 0.375-0.95703 0.80469-0.14063 0.42969-0.023438 0.89844 0.29687 1.2148l4.4375 4.3242c0.83594 0.80859 1.2148 1.9805 1.0156 3.125l-0.82813 4.8281c-0.09375 0.5625-0.58594 0.97266-1.1562 0.96875z"/>
 <path d="m2.1484 62.641c-0.64844 0-1.1719-0.52344-1.1719-1.1719v-1.7578c0-0.64844 0.52344-1.1719 1.1719-1.1719 0.64844 0 1.1719 0.52344 1.1719 1.1719v1.7578c0 0.64844-0.52344 1.1719-1.1719 1.1719z"/>
 <path d="m90.75 91.27c-0.57422 0-1.1367-0.14062-1.6445-0.41016l-5.4844-2.8828c-0.34375-0.17969-0.75781-0.17969-1.1055 0l-5.4844 2.8828c-1.1875 0.625-2.6289 0.51953-3.7148-0.26953-1.0859-0.78906-1.6328-2.1289-1.4023-3.4492l1.0469-6.1055v-0.003906c0.066406-0.38281-0.0625-0.77344-0.33984-1.0469l-4.4375-4.3281h-0.003906c-0.96094-0.93359-1.3047-2.3359-0.89063-3.6133 0.41406-1.2773 1.5156-2.2109 2.8438-2.4023l6.1367-0.89062c0.38672-0.054688 0.72266-0.29688 0.89453-0.64844l2.7344-5.5547c0.59375-1.2031 1.8203-1.9688 3.1641-1.9688s2.5703 0.76562 3.1641 1.9688l2.7344 5.5547c0.17187 0.35156 0.50391 0.59375 0.89062 0.64844l6.1328 0.89062c1.3281 0.19531 2.4336 1.125 2.8477 2.4023 0.41406 1.2773 0.066407 2.6797-0.89453 3.6172l-4.4375 4.3281v-0.003906c-0.27734 0.27344-0.40625 0.66797-0.33984 1.0508l1.0469 6.1055c0.17578 1.0234-0.10938 2.0742-0.77734 2.8711-0.67188 0.79688-1.6562 1.2578-2.6953 1.2617zm-7.6797-5.7734c0.57031 0 1.1328 0.14062 1.6406 0.40625l5.4844 2.8828c0.39844 0.21094 0.88281 0.17578 1.25-0.089844 0.36328-0.26562 0.54688-0.71484 0.46875-1.1602l-1.0469-6.1055c-0.19531-1.1445 0.18359-2.3125 1.0156-3.125l4.4375-4.3242c0.32422-0.31641 0.4375-0.78516 0.30078-1.2148-0.14062-0.42969-0.51172-0.74219-0.95703-0.80469l-6.1328-0.89063c-1.1484-0.16797-2.1445-0.89062-2.6562-1.9297l-2.7344-5.5547c-0.20312-0.40625-0.61328-0.66016-1.0664-0.66016-0.44922 0-0.86328 0.25391-1.0625 0.66016l-2.7344 5.5547c-0.51172 1.043-1.5078 1.7656-2.6562 1.9297l-6.1328 0.89063c-0.44531 0.066406-0.82031 0.37891-0.95703 0.80859-0.14062 0.42969-0.023438 0.90234 0.30078 1.2148l4.4375 4.3242c0.83203 0.8125 1.2109 1.9805 1.0117 3.125l-1.0625 6.1016c-0.078125 0.44531 0.10547 0.89453 0.47266 1.1602 0.36328 0.26563 0.84766 0.30078 1.2461 0.089844l5.4844-2.8828c0.50781-0.26562 1.0742-0.40625 1.6484-0.40625zm-2.1172-22.434z"/>
<text x="0.0" y="117.5" font-size="5.0" font-weight="bold" font-family="Arbeit Regular, Helvetica, Arial-Unicode, Arial, Sans-serif" fill="#000000">Created by BEARicons</text><text x="0.0" y="122.5" font-size="5.0" font-weight="bold" font-family="Arbeit Regular, Helvetica, Arial-Unicode, Arial, Sans-serif" fill="#000000">from Noun Project</text></svg>